<svg width="512" height="512" viewBox="0 0 512 512" fill="none" xmlns="http://www.w3.org/2000/svg" role="img" aria-label="NaRégua app icon">
  <defs>
    <clipPath id="diag">
      <polygon points="148,152 196,152 364,360 316,360"></polygon>
    </clipPath>
  </defs>
  
  <rect x="0" y="0" width="512" height="512" rx="116" fill="#211C18"></rect>
  <rect x="6" y="6" width="500" height="500" rx="111" fill="none" stroke="#B07A20" stroke-opacity="0.22" stroke-width="2"></rect>
  
  <rect x="148" y="152" width="48" height="208" rx="6" fill="#E1AF4F"></rect>
  <rect x="316" y="152" width="48" height="208" rx="6" fill="#E1AF4F"></rect>
  
  <g clip-path="url(#diag)">
    <rect x="120" y="120" width="272" height="272" fill="#FAF8F5"></rect>
    <g transform="rotate(50.6 256 256)">
      <g>
        <rect x="60" y="60" width="392" height="20" fill="#C2362F"></rect>
        <rect x="60" y="100" width="392" height="20" fill="#234A8C"></rect>
        <rect x="60" y="140" width="392" height="20" fill="#C2362F"></rect>
        <rect x="60" y="180" width="392" height="20" fill="#234A8C"></rect>
        <rect x="60" y="220" width="392" height="20" fill="#C2362F"></rect>
        <rect x="60" y="260" width="392" height="20" fill="#234A8C"></rect>
        <rect x="60" y="300" width="392" height="20" fill="#C2362F"></rect>
        <rect x="60" y="340" width="392" height="20" fill="#234A8C"></rect>
        <rect x="60" y="380" width="392" height="20" fill="#C2362F"></rect>
      </g>
    </g>
  </g>
</svg>